Coordinates
version=1
nRows=42
nColumns=38
inDegrees=no

Units are S.I. units (second, meters, Newtons, ...)
If the header above contains a line with 'inDegrees', this indicates whether rotational values are in degrees (yes) or radians (no).

endheader
time	pelvis_tilt	pelvis_list	pelvis_rotation	pelvis_tx	pelvis_ty	pelvis_tz	hip_flexion_r	hip_adduction_r	hip_rotation_r	knee_angle_r	ankle_angle_r	subtalar_angle_r	mtp_angle_r	hip_flexion_l	hip_adduction_l	hip_rotation_l	knee_angle_l	ankle_angle_l	subtalar_angle_l	mtp_angle_l	lumbar_extension	lumbar_bending	lumbar_rotation	arm_flex_r	arm_add_r	arm_rot_r	elbow_flex_r	pro_sup_r	wrist_flex_r	wrist_dev_r	arm_flex_l	arm_add_l	arm_rot_l	elbow_flex_l	pro_sup_l	wrist_flex_l	wrist_dev_l
1.73	3.04382	1.40145	-1.44152	0.7292	1.07407	0.96001	0.284686	-0.0876576	-0.351058	0.382689	0.0399334	0	0	-0.332898	0.0462275	-0.213027	0	0.0802979	0	0	-0.307208	0.00784035	0.0963785	0.0991575	-0.286782	0.719003	0.376737	0.892621	0	0	0.19396	-0.186967	0.195892	0.229256	1.5708	0	0
1.74	3.03367	1.40632	-1.43378	0.730597	1.08186	0.958446	0.277393	-0.070519	-0.351649	0.309898	0.0415755	0	0	-0.336297	0.0441876	-0.216115	0	0.086893	0	0	-0.304693	0.00729404	0.100494	0.101595	-0.286433	0.724618	0.375246	0.885978	0	0	0.198247	-0.187906	0.199723	0.226755	1.5708	0	0
1.75	3.0232	1.41116	-1.42614	0.732095	1.08981	0.956774	0.26843	-0.052286	-0.341699	0.237192	0.041547	0	0	-0.340001	0.0422862	-0.219037	0	0.0933781	0	0	-0.30194	0.00670031	0.104903	0.103584	-0.286122	0.730704	0.374031	0.877549	0	0	0.201572	-0.189245	0.203764	0.225236	1.5708	0	0
1.76	3.01173	1.41601	-1.41786	0.733603	1.09796	0.954999	0.258237	-0.0342979	-0.321449	0.167135	0.0380611	0	0	-0.343958	0.0405563	-0.222477	0	0.100001	0	0	-0.298761	0.00643623	0.1094	0.10512	-0.286103	0.737097	0.372956	0.869694	0	0	0.203507	-0.190737	0.207413	0.225865	1.5708	0	0
1.77	3.00103	1.42113	-1.41017	0.734996	1.10626	0.953137	0.247837	-0.0187314	-0.294887	0.102372	0.0311327	0	0	-0.347763	0.0393155	-0.226045	0	0.107104	0	0	-0.295018	0.00656544	0.113315	0.106241	-0.286427	0.743182	0.372319	0.861798	0	0	0.204622	-0.192151	0.210677	0.225149	1.5708	0	0
1.78	2.99257	1.42582	-1.40446	0.736281	1.11472	0.951283	0.23852	-0.00668166	-0.267828	0.0486655	0.0197085	0	0	-0.352281	0.038418	-0.229317	0	0.114636	0	0	-0.291425	0.00683512	0.11686	0.106691	-0.286891	0.748441	0.372259	0.853621	0	0	0.205401	-0.192958	0.212944	0.224264	1.5708	0	0
1.79	2.9849	1.42863	-1.39855	0.737398	1.12348	0.949575	0.230829	0.00227298	-0.24868	0.011282	0.00776857	0	0	-0.359243	0.037059	-0.231299	0	0.122151	0	0	-0.289046	0.00799008	0.119482	0.106229	-0.287651	0.752933	0.372591	0.846362	0	0	0.2058	-0.193214	0.215073	0.22341	1.5708	0	0
1.8	2.97899	1.42962	-1.39398	0.738189	1.13232	0.947987	0.229253	0.00727934	-0.243014	0	0.00503212	0	0	-0.368994	0.0359376	-0.232087	0	0.129182	0	0	-0.286718	0.0103763	0.121057	0.104727	-0.289011	0.756331	0.373157	0.841888	0	0	0.204856	-0.192695	0.21697	0.222024	1.5708	0	0
1.81	2.96989	1.42987	-1.3838	0.738803	1.14157	0.946645	0.229303	0.0110805	-0.244978	0	0.00864379	0	0	-0.37851	0.0334427	-0.232405	0	0.136232	0	0	-0.286208	0.014103	0.12075	0.103235	-0.290794	0.759089	0.374792	0.838107	0	0	0.2043	-0.191563	0.218484	0.221355	1.5708	0	0
1.82	2.95608	1.42976	-1.36692	0.739215	1.15087	0.945446	0.228486	0.0148817	-0.247836	0.00555423	0.0108336	0	0	-0.387691	0.0293481	-0.23093	0	0.142771	0	0	-0.287167	0.0191685	0.11872	0.101849	-0.292384	0.76104	0.376379	0.834766	0	0	0.203537	-0.189982	0.218685	0.221805	1.5708	0	0
1.83	2.94305	1.42976	-1.35091	0.739401	1.16061	0.944277	0.232056	0.014628	-0.259399	0.0295879	0.0146348	0	0	-0.404867	0.0258332	-0.231652	0	0.149355	0	0	-0.285877	0.0249288	0.115418	0.0995378	-0.293856	0.761655	0.377708	0.831852	0	0	0.200822	-0.188438	0.217568	0.221606	1.5708	0	0
1.84	2.93919	1.42752	-1.34189	0.73944	1.17026	0.943371	0.236032	0.0131028	-0.273489	0.0656828	0.0179011	0	0	-0.413706	0.0213132	-0.229868	0	0.154896	0	0	-0.286955	0.0303963	0.110011	0.0970153	-0.295023	0.761767	0.379125	0.828954	0	0	0.198172	-0.186927	0.215855	0.221039	1.5708	0	0
1.85	2.9387	1.42524	-1.33477	0.739351	1.18021	0.942505	0.239113	0.0100484	-0.290031	0.10486	0.0213101	0	0	-0.422446	0.016588	-0.227698	0.000965667	0.160055	0	0	-0.287412	0.0359203	0.102562	0.0940157	-0.29564	0.762093	0.379993	0.82767	0	0	0.194398	-0.185721	0.212355	0.220767	1.5708	0	0
1.86	2.88555	1.41837	-1.27725	0.739392	1.1892	0.942838	0.231375	0.0180483	-0.313186	0.124509	0.0108377	0	0	-0.4301	0.00259876	-0.232968	0.0147735	0.16644	0	0	-0.294101	0.0511596	0.0984509	0.0952383	-0.298481	0.762745	0.380322	0.828292	0	0	0.19272	-0.181887	0.207215	0.220927	1.5708	0	0
1.87	2.93736	1.41948	-1.31618	0.73927	1.20078	0.941177	0.232544	0.0060707	-0.318381	0.158273	0.0309507	0	0	-0.437988	0.00294451	-0.226477	0.0248024	0.172236	0	0	-0.287868	0.047985	0.0823268	0.087733	-0.295122	0.761944	0.380447	0.830573	0	0	0.184168	-0.184994	0.198345	0.221115	1.5708	0	0
1.88	2.8754	1.41176	-1.2495	0.739809	1.21004	0.941865	0.215122	0.0207925	-0.33381	0.14838	0.0122567	0	0	-0.444008	-0.0148886	-0.233598	0.0423031	0.177242	0	0	-0.294289	0.0648722	0.0780968	0.0885838	-0.296769	0.760127	0.380096	0.832964	0	0	0.182209	-0.182012	0.191346	0.220055	1.5708	0	0
1.89	2.86196	1.40852	-1.22819	0.740463	1.22063	0.941593	0.201039	0.0282839	-0.330213	0.139602	-0.010591	0	0	-0.448129	-0.0261543	-0.236434	0.0604535	0.182032	0	0	-0.293746	0.072577	0.069303	0.0843938	-0.295769	0.756331	0.380884	0.835604	0	0	0.176789	-0.182424	0.183506	0.220126	1.5708	0	0
1.9	2.89722	1.41274	-1.25395	0.741238	1.23248	0.940127	0.196315	0.0246551	-0.313118	0.142852	-0.033112	0	0	-0.447987	-0.0284603	-0.2342	0.078977	0.185861	0	0	-0.283932	0.0692843	0.056874	0.0751269	-0.292084	0.751309	0.382237	0.839074	0	0	0.166883	-0.186142	0.174772	0.222737	1.5708	0	0
1.91	2.82904	1.40826	-1.18412	0.742511	1.24217	0.94087	0.181592	0.0410601	-0.322566	0.126208	-0.0796878	0	0	-0.444293	-0.0482081	-0.244169	0.107364	0.190066	0	0	-0.285479	0.085774	0.0557364	0.0740356	-0.293793	0.746855	0.383641	0.843054	0	0	0.162336	-0.183779	0.165472	0.226336	1.5708	0	0
1.92	2.85574	1.41418	-1.20302	0.743637	1.25429	0.939556	0.182431	0.0345256	-0.318809	0.142409	-0.0826172	0	0	-0.437598	-0.0524092	-0.242213	0.134955	0.193213	0	0	-0.273213	0.0825199	0.0451179	0.064016	-0.290132	0.741768	0.384975	0.847643	0	0	0.151554	-0.187809	0.15746	0.229277	1.5708	0	0
1.93	2.78255	1.40787	-1.13053	0.745197	1.26407	0.940779	0.173126	0.048275	-0.338325	0.145062	-0.100063	0	0	-0.430358	-0.0746118	-0.252334	0.171917	0.193306	0	0	-0.275666	0.1002	0.0469869	0.0631031	-0.292327	0.739029	0.38557	0.852702	0	0	0.147476	-0.184948	0.149644	0.232044	1.5708	0	0
1.94	2.75216	1.40579	-1.10017	0.747003	1.27494	0.941256	0.170235	0.0525041	-0.345174	0.161515	-0.103044	0	0	-0.42103	-0.0901271	-0.258093	0.210721	0.190263	0	0	-0.272814	0.108614	0.0470542	0.0583548	-0.292173	0.736842	0.386311	0.857152	0	0	0.14109	-0.184596	0.14154	0.234746	1.5708	0	0
1.95	2.71682	1.40323	-1.06754	0.749141	1.28563	0.942071	0.167894	0.0584289	-0.347443	0.178411	-0.103438	0	0	-0.408474	-0.107049	-0.264961	0.255034	0.183143	0	0	-0.27086	0.117502	0.0503004	0.0544459	-0.292157	0.735337	0.386749	0.859994	0	0	0.135294	-0.18376	0.133395	0.237868	1.5708	0	0
1.96	2.71603	1.40818	-1.07139	0.751801	1.29707	0.941919	0.175323	0.055616	-0.335325	0.209731	-0.0854976	0	0	-0.38942	-0.115944	-0.270479	0.304429	0.172863	0	0	-0.262056	0.115612	0.0536699	0.0478111	-0.289485	0.734797	0.386368	0.863116	0	0	0.126467	-0.18619	0.125467	0.243308	1.5708	0	0
1.97	2.57227	1.39565	-0.934031	0.753772	1.3078	0.943755	0.167128	0.0874071	-0.337675	0.210839	-0.0923358	0	0	-0.368398	-0.157819	-0.288814	0.3643	0.160599	0	0	-0.259175	0.148086	0.0644399	0.0437116	-0.295594	0.73495	0.38771	0.864996	0	0	0.119774	-0.178992	0.118525	0.245644	1.5708	0	0
1.98	2.62458	1.40754	-0.998553	0.757847	1.3177	0.943985	0.171269	0.073951	-0.334225	0.232296	-0.0728065	0	0	-0.339323	-0.154671	-0.288977	0.425385	0.131529	0	0	-0.254732	0.130021	0.0744229	0.0418484	-0.289729	0.736625	0.386361	0.862336	0	0	0.115641	-0.185446	0.116962	0.254582	1.5708	0	0
1.99	2.58749	1.41018	-0.965424	0.760663	1.32848	0.944773	0.164884	0.0815617	-0.338723	0.232231	-0.0669758	0	0	-0.305661	-0.174363	-0.287436	0.491364	0.0956992	0	0	-0.246102	0.134225	0.0789051	0.0371501	-0.287647	0.737137	0.385558	0.858465	0	0	0.108383	-0.187975	0.11683	0.261934	1.5708	0	0
2	2.54465	1.41401	-0.928056	0.76368	1.33902	0.94532	0.158572	0.0908635	-0.337795	0.22814	-0.0624072	0	0	-0.267388	-0.193459	-0.283055	0.559089	0.0500486	0	0	-0.235924	0.137747	0.0848505	0.0325597	-0.286443	0.740017	0.38573	0.85613	0	0	0.101829	-0.190959	0.118248	0.269428	1.5708	0	0
2.01	2.49443	1.41826	-0.884632	0.766778	1.34925	0.94564	0.15294	0.101331	-0.332953	0.222555	-0.0576085	0	0	-0.225709	-0.211609	-0.274919	0.627044	-0.00456387	0	0	-0.224939	0.141333	0.0922073	0.0281635	-0.286605	0.746083	0.387181	0.85437	0	0	0.0962854	-0.193925	0.120277	0.276087	1.5708	0	0
2.02	2.44047	1.42191	-0.836895	0.769698	1.35923	0.945834	0.147039	0.111807	-0.32728	0.216333	-0.0531774	0	0	-0.181885	-0.228874	-0.262244	0.69432	-0.065408	0	0	-0.214108	0.145436	0.0990227	0.0239962	-0.28762	0.750098	0.389883	0.848431	0	0	0.0913172	-0.196952	0.122302	0.282411	1.5708	0	0
2.03	2.38739	1.42387	-0.788143	0.772274	1.36898	0.946016	0.139792	0.121909	-0.321844	0.209986	-0.0488238	0	0	-0.137316	-0.245324	-0.244765	0.760756	-0.128324	0	0	-0.204775	0.150596	0.1041	0.0202219	-0.289578	0.754241	0.393481	0.841925	0	0	0.0873749	-0.19975	0.123718	0.287573	1.5708	0	0
2.04	2.35104	1.42385	-0.755017	0.774522	1.37843	0.946483	0.130322	0.130162	-0.315298	0.205565	-0.0425508	0	0	-0.0954356	-0.259052	-0.225186	0.824161	-0.187099	0	0	-0.199481	0.155313	0.108292	0.0174045	-0.291927	0.757316	0.397108	0.838123	0	0	0.0851008	-0.202061	0.123523	0.291226	1.5708	0	0
2.05	2.33246	1.42275	-0.738765	0.776501	1.38755	0.94726	0.119012	0.136387	-0.307461	0.202328	-0.0352504	0	0	-0.0563541	-0.269327	-0.204884	0.88334	-0.232509	0	0	-0.197928	0.158964	0.111559	0.0157561	-0.294513	0.760776	0.401028	0.834395	0	0	0.0835269	-0.204199	0.122549	0.295536	1.5708	0	0
2.06	2.33611	1.42096	-0.74522	0.778345	1.39627	0.94846	0.105596	0.140016	-0.29831	0.20034	-0.0288851	0	0	-0.0216507	-0.275226	-0.186283	0.936429	-0.254009	0	0	-0.20085	0.160631	0.115276	0.0158877	-0.296979	0.764638	0.404703	0.829564	0	0	0.083056	-0.205984	0.121087	0.300473	1.5708	0	0
2.07	2.36134	1.4193	-0.774065	0.780147	1.40463	0.950027	0.0902927	0.140753	-0.289161	0.198994	-0.0236247	0	0	0.00950262	-0.276378	-0.169905	0.983758	-0.258081	0	0	-0.20735	0.159402	0.119673	0.0177138	-0.299094	0.770841	0.407943	0.820989	0	0	0.0835406	-0.207716	0.121307	0.306755	1.5708	0	0
2.08	2.4077	1.4181	-0.819864	0.781631	1.41321	0.951799	0.0706875	0.138653	-0.28481	0.194064	-0.0180871	0	0	0.0395908	-0.271895	-0.147976	1.02775	-0.253439	0	0	-0.214416	0.155278	0.119531	0.0196253	-0.297971	0.774256	0.407592	0.81646	0	0	0.0844419	-0.210265	0.122628	0.311261	1.5708	0	0
2.09	2.45397	1.41727	-0.86602	0.783119	1.42163	0.953546	0.0507807	0.136533	-0.280525	0.187239	-0.0137335	0	0	0.069575	-0.265841	-0.12699	1.06931	-0.241575	0	0	-0.221242	0.150337	0.119561	0.022335	-0.295413	0.776934	0.404991	0.813352	0	0	0.0854889	-0.212715	0.125526	0.315546	1.5708	0	0
2.1	2.4987	1.41633	-0.912366	0.784763	1.42991	0.955313	0.0299526	0.135348	-0.274333	0.17761	-0.0112205	0	0	0.0983281	-0.258655	-0.107917	1.10688	-0.223745	0	0	-0.228198	0.145056	0.121027	0.0258148	-0.291674	0.779205	0.4005	0.810984	0	0	0.0864859	-0.214677	0.129849	0.320334	1.5708	0	0
2.11	2.53864	1.41599	-0.955466	0.786517	1.43802	0.956975	0.0103635	0.134319	-0.266722	0.167657	-0.00929809	0	0	0.126509	-0.2512	-0.0929903	1.13901	-0.203986	0	0	-0.234276	0.139641	0.123976	0.029547	-0.287407	0.781218	0.395137	0.80994	0	0	0.0886434	-0.215595	0.134061	0.322635	1.5708	0	0
2.12	2.5745	1.41627	-0.99603	0.788342	1.44594	0.958488	-0.0076183	0.133026	-0.258559	0.158096	-0.00821176	0	0	0.153932	-0.24346	-0.081856	1.16522	-0.186068	0	0	-0.239507	0.134151	0.12843	0.0334863	-0.283099	0.783479	0.389218	0.809635	0	0	0.0917387	-0.215626	0.138301	0.322873	1.5708	0	0
2.13	2.58593	1.42518	-1.01846	0.789965	1.45258	0.959135	-0.0167167	0.128699	-0.265755	0.141014	-0.012486	0	0	0.192017	-0.231957	-0.0751457	1.18936	-0.168715	0	0	-0.237874	0.127557	0.138996	0.038828	-0.281749	0.78498	0.384134	0.809873	0	0	0.0985038	-0.211176	0.139416	0.317486	1.5708	0	0
2.14	2.65111	1.41791	-1.08019	0.791558	1.46175	0.961132	-0.0432685	0.127449	-0.246131	0.136748	-0.00668333	0	0	0.20646	-0.224632	-0.0632876	1.20214	-0.148495	0	0	-0.247693	0.122259	0.136107	0.040268	-0.274192	0.785337	0.37618	0.810386	0	0	0.100151	-0.213571	0.142822	0.317353	1.5708	0	0
